<svg width="34" height="34" viewBox="0 0 34 34" fill="none" xmlns="http://www.w3.org/2000/svg">
<rect width="33.2716" height="33.2716" rx="16.6358" fill="#FFD303"/>
<path d="M21.2772 16.9276C17.6711 15.3416 13.8517 16.1649 12.0564 16.9043C11.8472 16.9904 11.7345 17.2196 11.7843 17.4403C13.3712 24.4654 21.2699 23.0341 21.5563 17.3775C21.566 17.1851 21.4536 17.0052 21.2772 16.9276Z" fill="black"/>
<path fill-rule="evenodd" clip-rule="evenodd" d="M21.7324 12.0271C21.2743 12.0953 20.966 12.4129 20.9067 12.6011C20.7534 13.088 20.2344 13.3584 19.7475 13.205C19.2607 13.0517 18.9903 12.5327 19.1436 12.0459C19.4541 11.0602 20.4396 10.3508 21.4603 10.1988C22.5941 10.0301 23.8005 10.5235 24.5353 11.8844C24.7778 12.3336 24.6102 12.8943 24.1611 13.1368C23.7119 13.3792 23.1512 13.2117 22.9088 12.7626C22.5345 12.0693 22.0773 11.9758 21.7324 12.0271Z" fill="black"/>
<path fill-rule="evenodd" clip-rule="evenodd" d="M11.8742 12.0271C11.4161 12.0953 11.1078 12.4129 11.0485 12.6011C10.8952 13.088 10.3762 13.3584 9.88938 13.205C9.40253 13.0517 9.13216 12.5327 9.28549 12.0459C9.5959 11.0602 10.5815 10.3508 11.6021 10.1988C12.7359 10.0301 13.9424 10.5235 14.6771 11.8844C14.9196 12.3336 14.7521 12.8943 14.3029 13.1368C13.8538 13.3792 13.2931 13.2117 13.0506 12.7626C12.6763 12.0693 12.2191 11.9758 11.8742 12.0271Z" fill="black"/>
</svg>