<svg width="34" height="34" viewBox="0 0 34 34" fill="none" xmlns="http://www.w3.org/2000/svg">
<rect width="33.2716" height="33.2716" rx="16.6358" fill="#FFD303"/>
<path d="M20.949 17.2517C20.2096 19.5994 15.7734 21.3602 13.5553 17.2517" stroke="black" stroke-width="1.5" stroke-linecap="round"/>
<path fill-rule="evenodd" clip-rule="evenodd" d="M21.7329 12.0271C21.2748 12.0953 20.9664 12.4129 20.9072 12.6011C20.7538 13.088 20.2349 13.3584 19.748 13.205C19.2612 13.0517 18.9908 12.5327 19.1441 12.0459C19.4545 11.0602 20.4401 10.3508 21.4607 10.1988C22.5946 10.0301 23.801 10.5235 24.5358 11.8844C24.7782 12.3336 24.6107 12.8943 24.1616 13.1368C23.7124 13.3792 23.1517 13.2117 22.9092 12.7626C22.5349 12.0693 22.0778 11.9758 21.7329 12.0271Z" fill="black"/>
<path fill-rule="evenodd" clip-rule="evenodd" d="M11.8744 12.0271C11.4163 12.0953 11.1079 12.4129 11.0487 12.6011C10.8953 13.088 10.3764 13.3584 9.8895 13.205C9.40265 13.0517 9.13228 12.5327 9.28561 12.0459C9.59602 11.0602 10.5816 10.3508 11.6022 10.1988C12.7361 10.0301 13.9425 10.5235 14.6772 11.8844C14.9197 12.3336 14.7522 12.8943 14.303 13.1368C13.8539 13.3792 13.2932 13.2117 13.0507 12.7626C12.6764 12.0693 12.2193 11.9758 11.8744 12.0271Z" fill="black"/>
</svg>